<!-- Synozän – Kapitel-Icons (Sprite) -->
<svg xmlns="http://www.w3.org/2000/svg" style="display:none">
  <!-- Liebe -->
  <symbol id="icon-love" viewBox="0 0 24 24">
    <path d="M12 21s-6.4-4.2-9-6.9C1 12 1 8.5 3.7 7.1c2-1.1 4.3-.3 5.3 1.3 1-1.6 3.3-2.4 5.3-1.3C17 8.5 17 12 15 14.1 12.4 16.8 12 21 12 21z"/>
  </symbol>

  <!-- Wissen -->
  <symbol id="icon-knowledge" viewBox="0 0 24 24">
    <path d="M4 5h7a3 3 0 0 1 3 3v11H7a3 3 0 0 0-3 3V5z"/>
    <path d="M13 8a3 3 0 0 1 3-3h4v17h-7V8z"/>
  </symbol>

  <!-- Gemeinschaft -->
  <symbol id="icon-community" viewBox="0 0 24 24">
    <circle cx="7" cy="9" r="3"/><circle cx="17" cy="9" r="3"/><circle cx="12" cy="5" r="2.2"/>
    <path d="M3 19c.7-3.2 3.3-5 6.9-5s6.2 1.8 7 5H3z"/>
  </symbol>

  <!-- Geschichte -->
  <symbol id="icon-history" viewBox="0 0 24 24">
    <path d="M6 5h10a2 2 0 0 1 2 2v11H8a3 3 0 0 0-3 3V5z"/>
    <path d="M10 8h6M10 11h6M10 14h6"/>
  </symbol>

  <!-- Transformation -->
  <symbol id="icon-transformation" viewBox="0 0 24 24">
    <path d="M12 5a7 7 0 1 0 7 7h-3a4 4 0 1 1-4-4v3l5-5-5-5v4z"/>
  </symbol>
</svg>
